<svg width="21" height="20" viewBox="0 0 21 20" fill="none" xmlns="http://www.w3.org/2000/svg">
    <path
        d="M14.292 2.85991H6.12076C3.6694 2.85991 2.03516 4.08559 2.03516 6.94551V12.6654C2.03516 15.5253 3.6694 16.751 6.12076 16.751H14.292C16.7433 16.751 18.3776 15.5253 18.3776 12.6654V6.94551C18.3776 4.08559 16.7433 2.85991 14.292 2.85991ZM14.676 7.83617L12.1184 9.87898C11.5791 10.312 10.8927 10.5245 10.2064 10.5245C9.51998 10.5245 8.82543 10.312 8.2943 9.87898L5.73671 7.83617C5.47523 7.62372 5.43438 7.2315 5.63866 6.97003C5.85111 6.70855 6.23516 6.65952 6.49663 6.87197L9.05422 8.91477C9.67523 9.41322 10.7293 9.41322 11.3503 8.91477L13.9079 6.87197C14.1694 6.65952 14.5616 6.70038 14.7659 6.97003C14.9783 7.2315 14.9375 7.62372 14.676 7.83617Z"
        fill="#292D32" />
</svg>